<?xml version="1.0" encoding="utf-8"?>
<!-- Generator: Adobe Illustrator 19.1.0, SVG Export Plug-In . SVG Version: 6.00 Build 0)  -->
<svg version="1.1" id="Layer_1" xmlns="http://www.w3.org/2000/svg" xmlns:xlink="http://www.w3.org/1999/xlink" x="0px" y="0px"
	 viewBox="0 0 150 150" enable-background="new 0 0 150 150" xml:space="preserve">
<g id="medical">
	<circle id="Background_56_" fill="#FFC81A" cx="75" cy="75" r="75"/>
	<g id="Shadow_56_">
		<defs>
			<circle id="SVGID_103_" cx="75" cy="75" r="75"/>
		</defs>
		<clipPath id="SVGID_2_">
			<use xlink:href="#SVGID_103_"  overflow="visible"/>
		</clipPath>
		<polygon clip-path="url(#SVGID_2_)" fill="#E2A926" points="85.5,29.1 44.1,44.1 62.1,62 41,113.9 77.1,150 150,150 150,93.6 		
			"/>
	</g>
	<g id="Object_56_">
		<path fill="#FFFFFF" d="M83.5,44.7l-19.1,1.9l-18.6-1.9c-1.4,0-2.5-1.1-2.5-2.5V30.9c0-1.4,1.1-2.5,2.5-2.5h37.8
			c1.4,0,2.5,1.1,2.5,2.5v11.4C86.1,43.6,85,44.7,83.5,44.7z"/>
		<path fill="#FFFFFF" d="M40.3,112.2c0,1.4,1.1,2.5,2.5,2.5h43.7c1.4,0,2.5-1.1,2.5-2.4V91.5L65.4,88l-25.1,3.5V112.2z"/>
		<path fill="#FFFFFF" d="M86.6,48.3H42.8c-1.4,0-2.5,1.1-2.5,2.5v8.1L64.2,62l24.8-3.1v-8.1C89.1,49.4,88,48.3,86.6,48.3z"/>
		<rect x="40.3" y="58.9" fill="#C43E28" width="48.8" height="32.6"/>
		<polygon fill="#FFFFFF" points="78.4,72 68.6,72 68.6,62.4 62.2,62.4 62.2,72 52.9,72 52.9,78.3 62.2,78.3 62.2,88 68.6,88 
			68.6,78.3 78.4,78.3 		"/>
		<path fill="#DDDDDD" d="M47.7,40.4L47.7,40.4c-0.4,0-0.7-0.3-0.7-0.6v-7.7c0-0.3,0.3-0.6,0.6-0.6h0.1c0.3,0,0.6,0.3,0.6,0.6v7.7
			C48.4,40.1,48.1,40.4,47.7,40.4z"/>
		<path fill="#DDDDDD" d="M52,40.4L52,40.4c-0.4,0-0.7-0.3-0.7-0.6v-7.7c0-0.3,0.3-0.6,0.6-0.6H52c0.3,0,0.6,0.3,0.6,0.6v7.7
			C52.6,40.1,52.4,40.4,52,40.4z"/>
		<path fill="#DDDDDD" d="M56.3,40.4L56.3,40.4c-0.4,0-0.7-0.3-0.7-0.6v-7.7c0-0.3,0.3-0.6,0.6-0.6h0.1c0.3,0,0.6,0.3,0.6,0.6v7.7
			C56.9,40.1,56.6,40.4,56.3,40.4z"/>
		<path fill="#DDDDDD" d="M60.6,40.4L60.6,40.4c-0.4,0-0.7-0.3-0.7-0.6v-7.7c0-0.3,0.3-0.6,0.6-0.6h0.1c0.3,0,0.6,0.3,0.6,0.6v7.7
			C61.2,40.1,60.9,40.4,60.6,40.4z"/>
		<path fill="#DDDDDD" d="M64.9,40.4L64.9,40.4c-0.4,0-0.7-0.3-0.7-0.6v-7.7c0-0.3,0.3-0.6,0.6-0.6h0.1c0.3,0,0.6,0.3,0.6,0.6v7.7
			C65.5,40.1,65.2,40.4,64.9,40.4z"/>
		<path fill="#DDDDDD" d="M69.2,40.4L69.2,40.4c-0.4,0-0.7-0.3-0.7-0.6v-7.7c0-0.3,0.3-0.6,0.6-0.6h0.1c0.3,0,0.6,0.3,0.6,0.6v7.7
			C69.9,40.1,69.6,40.4,69.2,40.4z"/>
		<path fill="#DDDDDD" d="M73.5,40.4L73.5,40.4c-0.4,0-0.7-0.3-0.7-0.6v-7.7c0-0.3,0.3-0.6,0.6-0.6h0.1c0.3,0,0.6,0.3,0.6,0.6v7.7
			C74.1,40.1,73.9,40.4,73.5,40.4z"/>
		<path fill="#DDDDDD" d="M77.8,40.4L77.8,40.4c-0.4,0-0.7-0.3-0.7-0.6v-7.7c0-0.3,0.3-0.6,0.6-0.6h0.1c0.3,0,0.6,0.3,0.6,0.6v7.7
			C78.4,40.1,78.1,40.4,77.8,40.4z"/>
		<path fill="#DDDDDD" d="M82.1,40.4L82.1,40.4c-0.4,0-0.7-0.3-0.7-0.6v-7.7c0-0.3,0.3-0.6,0.6-0.6h0.1c0.3,0,0.6,0.3,0.6,0.6v7.7
			C82.7,40.1,82.4,40.4,82.1,40.4z"/>
		<path fill="#DDDDDD" d="M82.7,48.7H46.2c-0.6,0-1.2-0.5-1.2-1.2v-1.6c0-0.6,0.5-1.2,1.2-1.2h36.5c0.6,0,1.2,0.5,1.2,1.2v1.6
			C83.9,48.2,83.4,48.7,82.7,48.7z"/>
		<path fill="#A0DDF7" d="M85.3,76.2c0.1-0.1,0.2-0.2,0.3-0.3c5.9-5.6,12.4-0.4,12.4-0.4l9.3,9.6l-6.4,7L85.3,76.2z"/>
		<path fill="#E4524E" d="M100.3,91.9l6.9-6.8l9.6,10.1c0,0,5.6,5.6-0.2,11.4c-0.4,0.4-0.8,0.7-1.2,1L100.3,91.9z"/>
		<path fill="#76BBD6" d="M85.6,75.9c0.1,0.1,0.2,0.2,0.3,0.3l14.8,15.5l-5.7,5.5l-9.6-10C85.4,87.3,79.8,81.6,85.6,75.9z"/>
		<path fill="#C43E28" d="M100.6,91.6l15,15.7c-5.6,4.4-11.2-0.1-11.2-0.1l-9.6-10.1L100.6,91.6z"/>
		<path fill="#A0DDF7" d="M116.8,106.4c0,0.1,0,0.2,0,0.4c-0.2,8.1-8,8.9-8,8.9l-14-0.3l0.2-9.6L116.8,106.4z"/>
		<path fill="#E4524E" d="M95.6,105.9l-0.2,9.6l-13.8-0.3c0,0-8,0-7.8-8.1c0-0.5,0.1-1,0.1-1.5L95.6,105.9z"/>
		<path fill="#76BBD6" d="M116.8,106.8c-0.1,0-0.3,0-0.4,0L95,106.3l0.2-7.9l13.8,0.3C109,98.5,116.9,98.5,116.8,106.8z"/>
		<path fill="#C43E28" d="M95.6,106.3l-21.7-0.5c0.9-7,7.9-7.8,7.9-7.8l13.9,0.4L95.6,106.3z"/>
	</g>
</g>
</svg>
